<svg width="18" height="11" viewBox="0 0 18 11" fill="none" xmlns="http://www.w3.org/2000/svg">
<path d="M9.70236 10.7129L17.7124 2.70265C17.8979 2.51738 18 2.27007 18 2.00636C18 1.74266 17.8979 1.49534 17.7124 1.31008L17.1227 0.720178C16.7384 0.336327 16.1138 0.336327 15.7301 0.720178L9.00373 7.44656L2.26988 0.712714C2.08447 0.527448 1.8373 0.425156 1.57374 0.425156C1.30989 0.425156 1.06272 0.527448 0.877163 0.712714L0.287558 1.30261C0.102144 1.48803 0 1.73519 0 1.9989C0 2.2626 0.102144 2.50992 0.287558 2.69519L8.30496 10.7129C8.49096 10.8986 8.73929 11.0006 9.00329 11C9.26831 11.0006 9.51651 10.8986 9.70236 10.7129Z" fill="#C5C5C5" fill-opacity="0.37"/>
</svg>
