<svg width="45" height="50" viewBox="0 0 45 50" fill="none" xmlns="http://www.w3.org/2000/svg">
<path d="M14.1578 10.2979L9.30752 7.54155L22.5002 0L35.7317 7.54155L30.8815 10.2979L22.5002 5.55089L14.1578 10.2979ZM39.1851 15.0448V20.5957L44.0354 17.8394V12.2885L39.1851 9.49393L34.3349 12.2502L39.1851 15.0448ZM17.65 12.2885L22.5002 15.0448L27.3505 12.2885L22.5002 9.49393L17.65 12.2885ZM35.7317 17.0355L30.8815 14.2792L22.5002 19.0261L14.1578 14.2792L9.30752 17.0355V22.5864L17.65 27.3333V36.8273L22.5002 39.5836L27.3505 36.8273V27.3333L35.7317 22.5864V17.0355ZM39.1851 34.071L30.8427 38.8179V44.3688L44.0742 36.8273V21.7824L39.1851 24.577V34.071ZM30.8427 34.8749L35.6929 32.1186V26.5294L30.8427 29.2857V34.8749ZM17.65 40.8086V46.3595L22.5002 49.1158L27.3505 46.3595V40.8086L22.5002 43.5649L17.65 40.8086ZM0.92627 17.8394L5.77653 20.5957V15.0448L10.6268 12.2885L5.81533 9.49393L0.965073 12.2502V17.8394H0.92627ZM5.81533 24.577L0.965073 21.8207V36.8655L14.1966 44.4071V38.8562L5.81533 34.071V24.577ZM14.1578 29.324L9.30752 26.5677V32.1186L14.1578 34.8749V29.324Z" fill="#fff"/>
</svg>
