<svg width="32" height="32" viewBox="0 0 32 32" fill="none" xmlns="http://www.w3.org/2000/svg">
<path d="M16 32C24.8366 32 32 24.8366 32 16C32 7.16344 24.8366 0 16 0C7.16344 0 0 7.16344 0 16C0 24.8366 7.16344 32 16 32Z" fill="#00EF8B"/>
<path d="M23.0208 13.4976H18.5024V18.016H23.0208V13.4976Z" fill="white"/>
<path d="M13.987 19.7088C13.987 20.0443 13.8876 20.3722 13.7012 20.6511C13.5149 20.93 13.25 21.1474 12.9401 21.2757C12.6302 21.4041 12.2892 21.4377 11.9602 21.3722C11.6312 21.3068 11.329 21.1453 11.0918 20.9081C10.8546 20.6709 10.6931 20.3687 10.6276 20.0397C10.5622 19.7107 10.5958 19.3697 10.7241 19.0598C10.8525 18.7499 11.0699 18.485 11.3488 18.2986C11.6277 18.1123 11.9556 18.0128 12.291 18.0128H13.987V13.4976H12.291C11.0626 13.4976 9.86171 13.8619 8.84028 14.5444C7.81885 15.2269 7.02275 16.1969 6.55264 17.3319C6.08253 18.4668 5.95952 19.7157 6.19918 20.9206C6.43884 22.1254 7.0304 23.2321 7.89906 24.1008C8.76771 24.9695 9.87444 25.561 11.0793 25.8007C12.2841 26.0403 13.533 25.9173 14.668 25.4472C15.8029 24.9771 16.773 24.181 17.4555 23.1596C18.138 22.1382 18.5022 20.9373 18.5022 19.7088V18.0128H13.987V19.7088Z" fill="white"/>
<path d="M20.1983 11.2384H25.2799V6.72002H20.1983C18.5515 6.72171 16.9726 7.37665 15.8082 8.54111C14.6437 9.70556 13.9888 11.2844 13.9871 12.9312V13.4976H18.5023V12.9312C18.5031 12.482 18.6822 12.0514 19.0001 11.734C19.3181 11.4167 19.749 11.2384 20.1983 11.2384Z" fill="white"/>
<path d="M13.9871 18.0128H18.5023V13.4976H13.9871V18.0128Z" fill="#16FF99"/>
</svg>
