<svg width="32" height="32" viewBox="0 0 32 32" fill="none" xmlns="http://www.w3.org/2000/svg">
<path d="M25.6426 1.63555L18.9657 11.5556C18.5039 12.2311 19.3918 13.0489 20.031 12.48L26.6015 6.75555C26.7792 6.61333 27.0278 6.72 27.0278 6.9689V24.8533C27.0278 25.1022 26.7081 25.209 26.566 25.031L6.67704 1.20889C6.03775 0.426667 5.11432 0 4.08436 0H3.37403C1.52719 0 0 1.52889 0 3.41333V28.5867C0 30.471 1.52719 32 3.40954 32C4.58159 32 5.68259 31.3955 6.32188 30.3645L12.9989 20.4445C13.4606 19.769 12.5727 18.951 11.9334 19.52L5.36294 25.209C5.18535 25.351 4.93674 25.2445 4.93674 24.9955V7.14667C4.93674 6.89778 5.25639 6.7911 5.39846 6.9689L25.2875 30.791C25.9267 31.5733 26.8857 32 27.8801 32H28.5905C30.4729 32 32 30.471 32 28.5867V3.41333C31.9645 1.52889 30.4373 0 28.555 0C27.3829 0 26.2819 0.604445 25.6426 1.63555V1.63555Z" fill="#090909"/>
</svg>
