<svg width="39" height="32" viewBox="0 0 39 32" fill="none" xmlns="http://www.w3.org/2000/svg">
<g clip-path="url(#clip0_210_201)">
<path d="M34.8173 0H38.9055L22.3071 19.1448C21.8775 19.6195 21.8652 20.3766 22.2826 20.8642L31.8586 32.1048H27.5862L18.7346 21.6854L18.2926 21.1209C17.8752 20.6332 17.8875 19.8762 18.3172 19.4014L34.8173 0Z" fill="#fff"/>
<path d="M25.5971 20.877C25.327 20.5562 25.2288 20.12 25.327 19.7222C25.4007 19.504 25.5603 19.2602 25.7076 19.0934L26.8125 17.8616L39.0036 32.1048H35.124C35.124 32.1048 27.9788 23.6871 25.5971 20.877Z" fill="#fff"/>
<path d="M4.26009 32.1048H0L13.0626 16.8351C13.48 16.3475 13.48 15.6161 13.0626 15.1413L0.0982152 0H4.1987L17.2367 15.2696C17.5682 15.7187 17.6296 16.3732 17.2736 16.7966C13.8606 20.7872 4.26009 32.1048 4.26009 32.1048Z" fill="#fff"/>
<path d="M11.4052 0H7.46436L19.5448 14.1276C19.5448 14.1276 19.5817 14.1019 20.9321 12.498C21.3004 12.0617 21.3741 11.5228 20.9689 11.1122C18.4276 8.4817 11.4052 0 11.4052 0Z" fill="#fff"/>
<path d="M23.1664 9.85467L31.5515 0H27.5861L23.2033 5.15831L21.9387 6.64677C21.509 7.12156 21.4968 7.86577 21.9142 8.36622C22.2334 8.73832 23.1664 9.85467 23.1664 9.85467Z" fill="#fff"/>
<path d="M15.8863 22.2501L7.50122 32.1048H11.4667L15.8495 26.9465L17.114 25.458C17.5437 24.9833 17.556 24.239 17.1386 23.7386C16.8194 23.3665 15.8863 22.2501 15.8863 22.2501Z" fill="#fff"/>
</g>
<defs>
<clipPath id="clip0_210_201">
<rect width="39" height="32" fill="white"/>
</clipPath>
</defs>
</svg>
