<svg width="26" height="33" viewBox="0 0 26 33" fill="none" xmlns="http://www.w3.org/2000/svg">
<path d="M12.7303 0C9.46022 0 6.32405 1.2993 4.01174 3.61209C1.69943 5.92487 0.400391 9.06168 0.400391 12.3324C0.400613 13.1116 0.47371 13.889 0.618738 14.6545L2.21167 13.5647C5.01214 11.6437 9.55398 11.6437 12.3544 13.5647L14.0259 14.7099L14.9338 15.3328C17.4578 17.0623 21.5466 17.0623 24.0683 15.3328L24.8115 14.8238C25.1786 13.0314 25.1427 11.1796 24.7062 9.40278C24.2698 7.62591 23.4438 5.96834 22.288 4.55009C21.1322 3.13184 19.6756 1.98839 18.0236 1.20254C16.3716 0.416686 14.5656 0.00810669 12.7362 0.00636014L12.7303 0Z" fill="#F2B705"/>
<path d="M19.6595 19.7412C17.8981 19.7713 16.1675 19.2768 14.6878 18.3205L12.1125 16.5551C10.7109 15.6956 9.0988 15.2406 7.45469 15.2406C5.81057 15.2406 4.1985 15.6956 2.79686 16.5551L1.13175 17.6952C1.05339 17.7489 0.96523 17.7866 0.8723 17.8062C0.77937 17.8257 0.683492 17.8268 0.590142 17.8094C0.496793 17.7919 0.407796 17.7562 0.328239 17.7043C0.248682 17.6524 0.180113 17.5854 0.12646 17.507C0.0728074 17.4286 0.0351148 17.3405 0.0155342 17.2475C-0.00404641 17.1546 -0.00512489 17.0587 0.0123479 16.9653C0.0298206 16.8719 0.0655064 16.7829 0.117372 16.7033C0.169238 16.6238 0.236271 16.5552 0.314635 16.5015L1.97929 15.3614C3.62236 14.3382 5.51917 13.7958 7.45469 13.7958C9.39021 13.7958 11.287 14.3382 12.9301 15.3614L15.5054 17.1267C16.7558 17.8921 18.1932 18.297 19.6591 18.297C21.125 18.297 22.5624 17.8921 23.8128 17.1267L24.7906 16.4579C24.869 16.4043 24.9571 16.3666 25.0501 16.347C25.143 16.3274 25.2389 16.3263 25.3322 16.3438C25.4256 16.3613 25.5146 16.397 25.5941 16.4488C25.6737 16.5007 25.7422 16.5678 25.7959 16.6461C25.8496 16.7245 25.8872 16.8127 25.9068 16.9057C25.9264 16.9986 25.9275 17.0945 25.91 17.1879C25.8925 17.2812 25.8569 17.3702 25.805 17.4498C25.7531 17.5294 25.6861 17.598 25.6077 17.6516L24.6304 18.3209C23.151 19.2771 21.4207 19.7715 19.6595 19.7412Z" fill="#53CBC8"/>
<path d="M7.40106 24.9201V17.9526C7.39564 17.806 7.40187 17.6592 7.41968 17.5136C7.44134 17.3218 7.5329 17.1448 7.67686 17.0163C7.82082 16.8878 8.00708 16.8169 8.20003 16.8171C8.38696 16.8221 8.56545 16.896 8.70132 17.0245C8.83719 17.1531 8.92088 17.3272 8.93635 17.5136C8.96593 17.7555 8.97444 17.9995 8.96177 18.2428V32.1367C8.96552 32.2448 8.94777 32.3526 8.90955 32.4538C8.87134 32.5551 8.81341 32.6477 8.73913 32.7263C8.66485 32.805 8.57569 32.8681 8.47684 32.912C8.37798 32.9559 8.2714 32.9798 8.16326 32.9822C8.05489 32.9761 7.94888 32.9481 7.85171 32.8998C7.75453 32.8514 7.66822 32.7838 7.59805 32.701C7.52787 32.6182 7.4753 32.5219 7.44354 32.4181C7.41178 32.3143 7.4015 32.2051 7.41332 32.0972V27.4659L7.40106 24.9201Z" fill="#53CBC8"/>
<path d="M5.93636 21.413V24.8756C5.93636 25.4658 5.61859 25.8604 5.17235 25.8463C5.05616 25.8344 4.94349 25.7996 4.8408 25.7439C4.73812 25.6882 4.64745 25.6128 4.57404 25.5219C4.50062 25.4311 4.44589 25.3266 4.41301 25.2145C4.38013 25.1024 4.36975 24.9849 4.38245 24.8688V17.9458C4.38245 17.3392 4.73564 16.9301 5.19504 16.9537C5.65445 16.9774 5.9291 17.3442 5.93137 17.9499C5.93863 19.1046 5.93636 20.2588 5.93636 21.413Z" fill="#53CBC8"/>
<path d="M10.4342 21.4084V18.9743C10.4342 18.4099 10.7334 18.0453 11.1796 18.0453C11.2922 18.0506 11.4025 18.0785 11.504 18.1275C11.6054 18.1764 11.696 18.2453 11.7702 18.3302C11.8444 18.415 11.9007 18.5139 11.9357 18.621C11.9707 18.7281 11.9838 18.8411 11.9741 18.9534C11.991 20.6104 11.991 22.2665 11.9741 23.9216C11.9886 24.0339 11.9791 24.1481 11.9461 24.2564C11.9131 24.3647 11.8573 24.4647 11.7825 24.5498C11.7078 24.6348 11.6157 24.703 11.5125 24.7496C11.4093 24.7962 11.2974 24.8203 11.1842 24.8202C10.727 24.8156 10.4347 24.4692 10.4297 23.8912V21.4062L10.4342 21.4084Z" fill="#53CBC8"/>
<path d="M1.36412 21.9165V19.4824C1.36412 18.9184 1.66373 18.5534 2.10952 18.5534C2.22206 18.5587 2.33237 18.5866 2.43385 18.6355C2.53532 18.6845 2.62587 18.7534 2.70006 18.8382C2.77425 18.923 2.83055 19.022 2.86558 19.1291C2.90062 19.2362 2.91367 19.3492 2.90395 19.4615C2.91908 21.1185 2.91908 22.7745 2.90395 24.4297C2.91832 24.542 2.90863 24.656 2.87552 24.7642C2.84241 24.8725 2.78664 24.9724 2.71192 25.0574C2.6372 25.1424 2.54523 25.2105 2.44215 25.2572C2.33906 25.3039 2.22722 25.3281 2.11406 25.3283C1.6601 25.3237 1.36412 24.9773 1.35913 24.3993V21.9143L1.36412 21.9165Z" fill="#53CBC8"/>
<path d="M14.213 19.8429C14.4156 19.843 14.61 19.9236 14.7532 20.067C14.8965 20.2104 14.977 20.4048 14.977 20.6075V21.9311C14.977 22.1337 14.8965 22.3281 14.7532 22.4714C14.6099 22.6147 14.4156 22.6953 14.213 22.6953C14.0103 22.6953 13.8159 22.6147 13.6726 22.4714C13.5292 22.3281 13.4486 22.1338 13.4485 21.9311V20.6075C13.4485 20.4047 13.529 20.2103 13.6724 20.0669C13.8158 19.9235 14.0102 19.8429 14.213 19.8429Z" fill="#53CBC8"/>
<path d="M17.2408 21.0021C17.4435 21.0022 17.6378 21.0828 17.7811 21.2262C17.9243 21.3696 18.0048 21.564 18.0048 21.7667V29.1913C18.0048 29.394 17.9243 29.5884 17.7811 29.7317C17.6378 29.875 17.4434 29.9555 17.2408 29.9555C17.1405 29.9556 17.0411 29.9358 16.9484 29.8974C16.8556 29.8591 16.7714 29.8028 16.7004 29.7318C16.6295 29.6608 16.5732 29.5766 16.5348 29.4838C16.4965 29.3911 16.4767 29.2917 16.4768 29.1913V21.7667C16.4767 21.6663 16.4965 21.5669 16.5348 21.4741C16.5732 21.3814 16.6295 21.2971 16.7004 21.2261C16.7714 21.1551 16.8556 21.0987 16.9483 21.0603C17.0411 21.0219 17.1404 21.0021 17.2408 21.0021Z" fill="#53CBC8"/>
<path d="M20.2499 21.2899C20.4525 21.2899 20.6469 21.3704 20.7902 21.5137C20.9336 21.657 21.0142 21.8514 21.0143 22.0541V28.3654C21.0142 28.4658 20.9944 28.5651 20.956 28.6578C20.9175 28.7505 20.8612 28.8347 20.7902 28.9056C20.7192 28.9765 20.635 29.0328 20.5423 29.0711C20.4495 29.1095 20.3502 29.1292 20.2499 29.1291C20.1495 29.1292 20.0502 29.1095 19.9575 29.0711C19.8648 29.0328 19.7806 28.9765 19.7096 28.9056C19.6387 28.8347 19.5824 28.7505 19.544 28.6578C19.5056 28.5651 19.4858 28.4657 19.4858 28.3654V22.0541C19.4858 21.8514 19.5663 21.6571 19.7096 21.5138C19.8529 21.3705 20.0472 21.2899 20.2499 21.2899Z" fill="#53CBC8"/>
<path d="M23.2967 20.5703C23.4994 20.5703 23.6937 20.6508 23.837 20.7941C23.9802 20.9374 24.0607 21.1318 24.0607 21.3345V24.0561C24.0607 24.2587 23.9802 24.4531 23.837 24.5964C23.6937 24.7397 23.4994 24.8202 23.2967 24.8202C23.0941 24.8202 22.8998 24.7397 22.7565 24.5964C22.6132 24.4531 22.5327 24.2587 22.5327 24.0561V21.3345C22.5327 21.1318 22.6132 20.9374 22.7565 20.7941C22.8998 20.6508 23.0941 20.5703 23.2967 20.5703Z" fill="#53CBC8"/>
</svg>
