<svg width="32" height="28" viewBox="0 0 32 28" fill="none" xmlns="http://www.w3.org/2000/svg">
<path d="M24.1476 8.40354C23.5571 8.0546 22.7896 8.0546 22.1403 8.40354L17.535 11.0787L14.4059 12.8234L9.80073 15.4986C9.21032 15.8475 8.4428 15.8475 7.79335 15.4986L4.13284 13.4049C3.54243 13.056 3.12915 12.4163 3.12915 11.7184V7.58935C3.12915 6.89148 3.4834 6.25176 4.13284 5.90283L7.73431 3.86737C8.32472 3.51844 9.09224 3.51844 9.74169 3.86737L13.3432 5.90283C13.9335 6.25176 14.3469 6.89148 14.3469 7.58935V10.2645L17.476 8.46169V5.78652C17.476 5.08864 17.1218 4.44893 16.4723 4.09999L9.80073 0.261702C9.21032 -0.087234 8.4428 -0.087234 7.79335 0.261702L1.00369 4.09999C0.354243 4.44893 0 5.08864 0 5.78652V13.5213C0 14.2191 0.354243 14.8589 1.00369 15.2078L7.79335 19.0461C8.38375 19.395 9.15129 19.395 9.80073 19.0461L14.4059 16.4291L17.535 14.6262L22.1403 12.0092C22.7306 11.6603 23.4981 11.6603 24.1476 12.0092L27.7491 14.0447C28.3394 14.3936 28.7527 15.0334 28.7527 15.7312V19.8602C28.7527 20.5582 28.3985 21.1978 27.7491 21.5468L24.1476 23.6404C23.5571 23.9893 22.7896 23.9893 22.1403 23.6404L18.5388 21.605C17.9483 21.256 17.535 20.6163 17.535 19.9184V17.2433L14.4059 19.0461V21.7212C14.4059 22.4191 14.7602 23.0588 15.4095 23.4078L22.1993 27.246C22.7896 27.595 23.5571 27.595 24.2066 27.246L30.9963 23.4078C31.5867 23.0588 32 22.4191 32 21.7212V13.9865C32 13.2886 31.6457 12.649 30.9963 12.3L24.1476 8.40354Z" fill="#8247E5"/>
</svg>
