<svg width="32" height="31" viewBox="0 0 32 31" fill="none" xmlns="http://www.w3.org/2000/svg">
<path fill-rule="evenodd" clip-rule="evenodd" d="M5.49614 23.6375C5.59841 23.5183 5.72198 23.4225 5.85943 23.3559C5.99689 23.2894 6.14542 23.2533 6.29614 23.25H31.4317C31.5382 23.2516 31.6417 23.2863 31.7302 23.3498C31.8187 23.4133 31.8883 23.503 31.9306 23.608C31.9729 23.7131 31.9861 23.8291 31.9684 23.942C31.951 24.0549 31.9036 24.16 31.8319 24.2446L26.5038 30.6125C26.4016 30.7317 26.278 30.8275 26.1405 30.8941C26.0031 30.9607 25.8546 30.9967 25.7038 31H0.552218C0.445869 30.9984 0.342215 30.9637 0.253725 30.9002C0.165238 30.8367 0.0956844 30.747 0.0534301 30.6419C0.0111757 30.5369 -0.00197916 30.4209 0.0155466 30.308C0.0330723 30.1951 0.0805346 30.09 0.152225 30.0054L5.49614 23.6375ZM31.8559 18.3589C31.9276 18.4434 31.975 18.5485 31.9924 18.6614C32.0101 18.7744 31.9969 18.8903 31.9546 18.9954C31.9123 19.1005 31.8427 19.1902 31.7542 19.2537C31.6657 19.3172 31.5622 19.3518 31.4557 19.3535L6.31213 19.375C6.16144 19.3717 6.01288 19.3357 5.87542 19.2691C5.73797 19.2025 5.6144 19.1067 5.51216 18.9875L0.144224 12.6411C0.0725368 12.5566 0.0250745 12.4515 0.00754571 12.3385C-0.00998004 12.2256 0.0031748 12.1097 0.0454292 12.0046C0.0876836 11.8995 0.157238 11.8098 0.245727 11.7463C0.334214 11.6828 0.437868 11.6482 0.54422 11.6465L25.6879 11.625C25.8386 11.6283 25.9871 11.6643 26.1246 11.7309C26.262 11.7975 26.3856 11.8933 26.4879 12.0125L31.8559 18.3589ZM5.49614 0.3875C5.59841 0.268285 5.72198 0.172516 5.85943 0.105932C5.99689 0.0393471 6.14542 0.00331681 6.29614 0L31.4479 0.0215278C31.5541 0.02314 31.6579 0.0577914 31.7464 0.121314C31.8349 0.184836 31.9045 0.274524 31.9465 0.379589C31.9888 0.484656 32.002 0.600625 31.9846 0.713546C31.9669 0.82647 31.9195 0.931537 31.8478 1.01611L26.5038 7.3625C26.4016 7.48172 26.278 7.5775 26.1405 7.64408C26.0031 7.71067 25.8546 7.74667 25.7038 7.75H0.552218C0.445869 7.74839 0.342215 7.71374 0.253725 7.65022C0.165238 7.5867 0.0956844 7.49699 0.0534301 7.39195C0.0111757 7.28687 -0.00197916 7.17091 0.0155466 7.05799C0.0330723 6.94507 0.0805346 6.83999 0.152225 6.75542L5.49614 0.3875Z" fill="url(#paint0_linear_210_210)"/>
<defs>
<linearGradient id="paint0_linear_210_210" x1="0.972212" y1="31.676" x2="33.2368" y2="1.7017" gradientUnits="userSpaceOnUse">
<stop stop-color="#9945FF"/>
<stop offset="0.14" stop-color="#8A53F4"/>
<stop offset="0.42" stop-color="#6377D6"/>
<stop offset="0.79" stop-color="#24B0A7"/>
<stop offset="0.99" stop-color="#00D18C"/>
<stop offset="1" stop-color="#00D18C"/>
</linearGradient>
</defs>
</svg>
