<svg width="32" height="32" viewBox="0 0 32 32" fill="none" xmlns="http://www.w3.org/2000/svg">
<circle cx="15.5" cy="16.5" r="14.5" fill="white"/>
<path fill-rule="evenodd" clip-rule="evenodd" d="M16 32C24.8365 32 32 24.8365 32 16C32 7.16345 24.8365 0 16 0C7.16344 0 0 7.16345 0 16C0 24.8365 7.16344 32 16 32ZM11.1655 23.2487H7.41207C6.52215 23.2487 6.07717 23.2487 5.81068 23.0764C5.52268 22.8901 5.34097 22.5776 5.32173 22.2354C5.30387 21.9187 5.52426 21.5326 5.96504 20.7604L5.96524 20.7601L14.1832 6.36315C14.6305 5.57952 14.8541 5.18771 15.1387 5.04185C15.4461 4.88429 15.8107 4.88402 16.1183 5.04116C16.4031 5.18657 16.6273 5.57809 17.0757 6.36103L18.971 9.67023L18.9711 9.67033C19.2972 10.2396 19.4602 10.5243 19.5319 10.8246C19.61 11.1516 19.6101 11.4922 19.5324 11.8192C19.4609 12.1196 19.2981 12.4045 18.9725 12.9741L14.0582 21.571C13.7279 22.149 13.5627 22.438 13.3364 22.654C13.09 22.8891 12.7913 23.0624 12.4648 23.1595C12.1647 23.2487 11.8317 23.2487 11.1655 23.2487ZM24.5567 23.2487H20.205C19.307 23.2487 18.858 23.2487 18.5907 23.0749C18.3018 22.887 18.1206 22.5722 18.1036 22.2283C18.0878 21.9101 18.3137 21.5223 18.7657 20.747L20.9379 17.0202C21.3842 16.2547 21.6074 15.8719 21.8898 15.7285C22.1951 15.5736 22.5561 15.5733 22.8617 15.7278C23.1445 15.8707 23.3681 16.2532 23.8153 17.018L23.8154 17.0182L25.9949 20.745C26.4486 21.5208 26.6754 21.9087 26.6599 22.2272C26.6431 22.5713 26.4621 22.8865 26.1731 23.0747C25.9058 23.2487 25.4561 23.2487 24.5567 23.2487Z" fill="#E5413F"/>
</svg>
