<svg width="25" height="18" viewBox="0 0 25 18" fill="none" xmlns="http://www.w3.org/2000/svg">
<path d="M21.5909 2.25C21.5909 2.25 18.9858 0.23175 15.9091 0L15.6318 0.549C18.4136 1.22287 19.6898 2.18869 21.0227 3.375C18.7244 2.21344 16.4551 1.125 12.5 1.125C8.54489 1.125 6.27557 2.21344 3.97727 3.375C5.31023 2.18869 6.82841 1.11656 9.36818 0.549L9.09091 0C5.86307 0.302063 3.40909 2.25 3.40909 2.25C3.40909 2.25 0.499432 6.42656 0 14.625C2.93295 17.9736 7.38636 18 7.38636 18L8.31761 16.7709C6.73693 16.227 4.9517 15.2556 3.40909 13.5C5.24886 14.8781 8.02557 16.3125 12.5 16.3125C16.9744 16.3125 19.7511 14.8781 21.5909 13.5C20.0483 15.2556 18.2631 16.227 16.6824 16.7709L17.6136 18C17.6136 18 22.067 17.9736 25 14.625C24.5006 6.42656 21.5909 2.25 21.5909 2.25ZM8.80682 12.375C7.70852 12.375 6.81818 11.3676 6.81818 10.125C6.81818 8.88244 7.70852 7.875 8.80682 7.875C9.90511 7.875 10.7955 8.88244 10.7955 10.125C10.7955 11.3676 9.90511 12.375 8.80682 12.375ZM16.1932 12.375C15.0949 12.375 14.2045 11.3676 14.2045 10.125C14.2045 8.88244 15.0949 7.875 16.1932 7.875C17.2915 7.875 18.1818 8.88244 18.1818 10.125C18.1818 11.3676 17.2915 12.375 16.1932 12.375Z" fill="#8C9EFF"/>
</svg>
