<svg width="180" height="40" viewBox="0 0 180 40" fill="none" xmlns="http://www.w3.org/2000/svg">
<circle cx="20" cy="20" r="20" fill="#6333FF"/>
<path d="M67.5332 26.0293V29H58.2275V26.0293H67.5332ZM59.459 10.5156V29H55.6504V10.5156H59.459ZM76.9023 25.9023V19.7832C76.9023 19.3431 76.8304 18.9665 76.6865 18.6533C76.5426 18.3317 76.3184 18.082 76.0137 17.9043C75.7174 17.7266 75.3324 17.6377 74.8584 17.6377C74.4521 17.6377 74.1009 17.7096 73.8047 17.8535C73.5085 17.9889 73.2799 18.1878 73.1191 18.4502C72.9583 18.7041 72.8779 19.0046 72.8779 19.3516H69.2217C69.2217 18.7676 69.3571 18.2132 69.6279 17.6885C69.8988 17.1637 70.2923 16.7025 70.8086 16.3047C71.3249 15.8984 71.9385 15.5811 72.6494 15.3525C73.3688 15.124 74.1729 15.0098 75.0615 15.0098C76.1279 15.0098 77.0758 15.1875 77.9053 15.543C78.7347 15.8984 79.3864 16.4316 79.8604 17.1426C80.3428 17.8535 80.584 18.7422 80.584 19.8086V25.6865C80.584 26.4398 80.6305 27.0576 80.7236 27.54C80.8167 28.014 80.9521 28.4287 81.1299 28.7842V29H77.4355C77.2578 28.6276 77.1224 28.1621 77.0293 27.6035C76.9447 27.0365 76.9023 26.4694 76.9023 25.9023ZM77.3848 20.6338L77.4102 22.7031H75.3662C74.8838 22.7031 74.4648 22.7581 74.1094 22.8682C73.7539 22.9782 73.4619 23.1348 73.2334 23.3379C73.0049 23.5326 72.8356 23.7611 72.7256 24.0234C72.624 24.2858 72.5732 24.5736 72.5732 24.8867C72.5732 25.1999 72.6452 25.4834 72.7891 25.7373C72.9329 25.9827 73.1403 26.1774 73.4111 26.3213C73.682 26.4567 73.9993 26.5244 74.3633 26.5244C74.9134 26.5244 75.3916 26.4144 75.7979 26.1943C76.2041 25.9743 76.5173 25.7035 76.7373 25.3818C76.9658 25.0602 77.0843 24.7555 77.0928 24.4678L78.0576 26.0166C77.9222 26.3636 77.736 26.7233 77.499 27.0957C77.2705 27.4681 76.9785 27.8193 76.623 28.1494C76.2676 28.471 75.8402 28.7376 75.3408 28.9492C74.8415 29.1523 74.249 29.2539 73.5635 29.2539C72.6917 29.2539 71.9004 29.0804 71.1895 28.7334C70.487 28.3779 69.9284 27.8913 69.5137 27.2734C69.1074 26.6471 68.9043 25.9362 68.9043 25.1406C68.9043 24.4212 69.0397 23.7822 69.3105 23.2236C69.5814 22.665 69.9792 22.1953 70.5039 21.8145C71.0371 21.4251 71.7015 21.1331 72.4971 20.9385C73.2926 20.7354 74.2152 20.6338 75.2646 20.6338H77.3848ZM91.5273 25.7119V15.2637H95.1836V29H91.7432L91.5273 25.7119ZM91.9336 22.8936L93.0127 22.8682C93.0127 23.7822 92.9069 24.6328 92.6953 25.4199C92.4837 26.1986 92.1663 26.8757 91.7432 27.4512C91.32 28.0182 90.7868 28.4626 90.1436 28.7842C89.5003 29.0973 88.7428 29.2539 87.8711 29.2539C87.2025 29.2539 86.5846 29.1608 86.0176 28.9746C85.459 28.7799 84.9766 28.4795 84.5703 28.0732C84.1725 27.6585 83.8594 27.1296 83.6309 26.4863C83.4108 25.8346 83.3008 25.0518 83.3008 24.1377V15.2637H86.957V24.1631C86.957 24.5693 87.0036 24.9121 87.0967 25.1914C87.1982 25.4707 87.3379 25.6992 87.5156 25.877C87.6934 26.0547 87.9007 26.1816 88.1377 26.2578C88.3831 26.334 88.654 26.3721 88.9502 26.3721C89.7035 26.3721 90.2959 26.2197 90.7275 25.915C91.1676 25.6104 91.4766 25.1956 91.6543 24.6709C91.8405 24.1377 91.9336 23.5452 91.9336 22.8936ZM101.557 18.1963V29H97.9004V15.2637H101.328L101.557 18.1963ZM101.023 21.6494H100.033C100.033 20.6338 100.164 19.7197 100.427 18.9072C100.689 18.0863 101.057 17.388 101.531 16.8125C102.005 16.2285 102.568 15.7842 103.22 15.4795C103.88 15.1663 104.616 15.0098 105.429 15.0098C106.072 15.0098 106.66 15.1029 107.193 15.2891C107.727 15.4753 108.184 15.7715 108.564 16.1777C108.954 16.584 109.25 17.1214 109.453 17.79C109.665 18.4587 109.771 19.2754 109.771 20.2402V29H106.089V20.2275C106.089 19.6182 106.004 19.1442 105.835 18.8057C105.666 18.4671 105.416 18.2301 105.086 18.0947C104.764 17.9508 104.367 17.8789 103.893 17.8789C103.402 17.8789 102.974 17.9762 102.61 18.1709C102.255 18.3656 101.959 18.6364 101.722 18.9834C101.493 19.3219 101.32 19.7197 101.201 20.1768C101.083 20.6338 101.023 21.1247 101.023 21.6494ZM118.226 26.3975C118.674 26.3975 119.072 26.3128 119.419 26.1436C119.766 25.9658 120.037 25.7204 120.231 25.4072C120.435 25.0856 120.54 24.709 120.549 24.2773H123.989C123.981 25.2422 123.723 26.1012 123.215 26.8545C122.707 27.5993 122.026 28.1875 121.171 28.6191C120.316 29.0423 119.36 29.2539 118.302 29.2539C117.235 29.2539 116.304 29.0762 115.509 28.7207C114.722 28.3652 114.066 27.8743 113.541 27.248C113.016 26.6133 112.623 25.877 112.36 25.0391C112.098 24.1927 111.967 23.2871 111.967 22.3223V21.9541C111.967 20.9808 112.098 20.0752 112.36 19.2373C112.623 18.391 113.016 17.6546 113.541 17.0283C114.066 16.3936 114.722 15.8984 115.509 15.543C116.296 15.1875 117.218 15.0098 118.276 15.0098C119.402 15.0098 120.388 15.2256 121.234 15.6572C122.089 16.0889 122.758 16.7067 123.24 17.5107C123.731 18.3063 123.981 19.25 123.989 20.3418H120.549C120.54 19.8848 120.443 19.4701 120.257 19.0977C120.079 18.7253 119.817 18.429 119.47 18.209C119.131 17.9805 118.712 17.8662 118.213 17.8662C117.68 17.8662 117.244 17.9805 116.905 18.209C116.567 18.429 116.304 18.7337 116.118 19.123C115.932 19.5039 115.801 19.9398 115.725 20.4307C115.657 20.9131 115.623 21.4209 115.623 21.9541V22.3223C115.623 22.8555 115.657 23.3675 115.725 23.8584C115.792 24.3493 115.919 24.7852 116.105 25.166C116.3 25.5469 116.567 25.8473 116.905 26.0674C117.244 26.2874 117.684 26.3975 118.226 26.3975ZM129.677 9.5V29H126.021V9.5H129.677ZM129.156 21.6494H128.153C128.162 20.693 128.289 19.8128 128.534 19.0088C128.78 18.1963 129.131 17.4938 129.588 16.9014C130.045 16.3005 130.591 15.835 131.226 15.5049C131.869 15.1748 132.58 15.0098 133.358 15.0098C134.035 15.0098 134.649 15.1071 135.199 15.3018C135.758 15.488 136.236 15.7926 136.634 16.2158C137.04 16.6305 137.353 17.1764 137.573 17.8535C137.793 18.5306 137.903 19.3516 137.903 20.3164V29H134.222V20.291C134.222 19.6816 134.133 19.2035 133.955 18.8564C133.786 18.501 133.536 18.2513 133.206 18.1074C132.884 17.9551 132.487 17.8789 132.013 17.8789C131.488 17.8789 131.039 17.9762 130.667 18.1709C130.303 18.3656 130.011 18.6364 129.791 18.9834C129.571 19.3219 129.41 19.7197 129.309 20.1768C129.207 20.6338 129.156 21.1247 129.156 21.6494ZM148.148 20.8877H143.4L143.375 18.2725H147.361C148.064 18.2725 148.639 18.1836 149.088 18.0059C149.536 17.8197 149.871 17.5531 150.091 17.2061C150.319 16.8506 150.434 16.4189 150.434 15.9111C150.434 15.3356 150.324 14.8701 150.104 14.5146C149.892 14.1592 149.558 13.901 149.101 13.7402C148.652 13.5794 148.072 13.499 147.361 13.499H144.721V29H140.912V10.5156H147.361C148.436 10.5156 149.397 10.6172 150.243 10.8203C151.098 11.0234 151.822 11.3324 152.414 11.7471C153.007 12.1618 153.459 12.6865 153.772 13.3213C154.086 13.9476 154.242 14.6924 154.242 15.5557C154.242 16.3174 154.069 17.0199 153.722 17.6631C153.383 18.3063 152.846 18.8311 152.109 19.2373C151.382 19.6436 150.429 19.8678 149.253 19.9102L148.148 20.8877ZM147.983 29H142.359L143.845 26.0293H147.983C148.652 26.0293 149.198 25.9235 149.621 25.7119C150.044 25.4919 150.357 25.1956 150.561 24.8232C150.764 24.4508 150.865 24.0234 150.865 23.541C150.865 22.9993 150.772 22.5296 150.586 22.1318C150.408 21.734 150.12 21.4294 149.723 21.2178C149.325 20.9977 148.8 20.8877 148.148 20.8877H144.479L144.505 18.2725H149.075L149.951 19.3008C151.077 19.2839 151.982 19.4827 152.668 19.8975C153.362 20.3037 153.866 20.8327 154.179 21.4844C154.5 22.1361 154.661 22.8343 154.661 23.5791C154.661 24.764 154.403 25.7627 153.887 26.5752C153.37 27.3792 152.613 27.9844 151.614 28.3906C150.624 28.7969 149.414 29 147.983 29ZM164.703 25.9023V19.7832C164.703 19.3431 164.631 18.9665 164.487 18.6533C164.343 18.3317 164.119 18.082 163.814 17.9043C163.518 17.7266 163.133 17.6377 162.659 17.6377C162.253 17.6377 161.902 17.7096 161.605 17.8535C161.309 17.9889 161.081 18.1878 160.92 18.4502C160.759 18.7041 160.679 19.0046 160.679 19.3516H157.022C157.022 18.7676 157.158 18.2132 157.429 17.6885C157.7 17.1637 158.093 16.7025 158.609 16.3047C159.126 15.8984 159.739 15.5811 160.45 15.3525C161.17 15.124 161.974 15.0098 162.862 15.0098C163.929 15.0098 164.877 15.1875 165.706 15.543C166.535 15.8984 167.187 16.4316 167.661 17.1426C168.144 17.8535 168.385 18.7422 168.385 19.8086V25.6865C168.385 26.4398 168.431 27.0576 168.524 27.54C168.618 28.014 168.753 28.4287 168.931 28.7842V29H165.236C165.059 28.6276 164.923 28.1621 164.83 27.6035C164.745 27.0365 164.703 26.4694 164.703 25.9023ZM165.186 20.6338L165.211 22.7031H163.167C162.685 22.7031 162.266 22.7581 161.91 22.8682C161.555 22.9782 161.263 23.1348 161.034 23.3379C160.806 23.5326 160.636 23.7611 160.526 24.0234C160.425 24.2858 160.374 24.5736 160.374 24.8867C160.374 25.1999 160.446 25.4834 160.59 25.7373C160.734 25.9827 160.941 26.1774 161.212 26.3213C161.483 26.4567 161.8 26.5244 162.164 26.5244C162.714 26.5244 163.192 26.4144 163.599 26.1943C164.005 25.9743 164.318 25.7035 164.538 25.3818C164.767 25.0602 164.885 24.7555 164.894 24.4678L165.858 26.0166C165.723 26.3636 165.537 26.7233 165.3 27.0957C165.071 27.4681 164.779 27.8193 164.424 28.1494C164.068 28.471 163.641 28.7376 163.142 28.9492C162.642 29.1523 162.05 29.2539 161.364 29.2539C160.493 29.2539 159.701 29.0804 158.99 28.7334C158.288 28.3779 157.729 27.8913 157.314 27.2734C156.908 26.6471 156.705 25.9362 156.705 25.1406C156.705 24.4212 156.84 23.7822 157.111 23.2236C157.382 22.665 157.78 22.1953 158.305 21.8145C158.838 21.4251 159.502 21.1331 160.298 20.9385C161.093 20.7354 162.016 20.6338 163.065 20.6338H165.186ZM174.859 18.2598V29H171.203V15.2637H174.644L174.859 18.2598ZM178.998 15.1748L178.935 18.5645C178.757 18.5391 178.541 18.5179 178.287 18.501C178.042 18.4756 177.817 18.4629 177.614 18.4629C177.098 18.4629 176.649 18.5306 176.269 18.666C175.896 18.793 175.583 18.9834 175.329 19.2373C175.084 19.4912 174.897 19.8001 174.771 20.1641C174.652 20.528 174.584 20.9427 174.567 21.4082L173.831 21.1797C173.831 20.291 173.92 19.4743 174.098 18.7295C174.275 17.9762 174.534 17.3203 174.872 16.7617C175.219 16.2031 175.642 15.7715 176.142 15.4668C176.641 15.1621 177.212 15.0098 177.855 15.0098C178.059 15.0098 178.266 15.0267 178.478 15.0605C178.689 15.0859 178.863 15.124 178.998 15.1748Z" fill="#6333FF"/>
</svg>
