<svg width="18" height="11" viewBox="0 0 18 11" fill="none" xmlns="http://www.w3.org/2000/svg">
<path d="M9.70236 10.7129L17.7124 2.70266C17.8979 2.5174 18 2.27008 18 2.00638C18 1.74267 17.8979 1.49536 17.7124 1.31009L17.1227 0.720193C16.7384 0.336342 16.1138 0.336342 15.7301 0.720193L9.00373 7.44658L2.26988 0.71273C2.08447 0.527463 1.8373 0.425171 1.57374 0.425171C1.30989 0.425171 1.06272 0.527463 0.877162 0.71273L0.287557 1.30263C0.102144 1.48804 -7.94758e-07 1.73521 -7.94758e-07 1.99891C-7.94758e-07 2.26262 0.102144 2.50993 0.287557 2.6952L8.30496 10.7129C8.49095 10.8986 8.73929 11.0006 9.00329 11C9.26831 11.0006 9.51651 10.8986 9.70236 10.7129Z" fill="#C5C5C5" fill-opacity="0.37"/>
</svg>
