<svg width="24" height="20" viewBox="0 0 24 20" fill="none" xmlns="http://www.w3.org/2000/svg">
<path d="M1.59432 8.46733C8.87557 5.26421 18.2974 1.359 19.5985 0.818378C23.01 -0.596205 24.0568 -0.325372 23.535 2.80796C23.16 5.06004 22.0787 12.5152 21.2162 17.1559C20.7047 19.908 19.5568 20.234 17.7527 19.0434C16.885 18.4705 12.5047 15.5736 11.5537 14.8934C10.686 14.2736 9.48911 13.5277 10.9902 12.059C11.5245 11.5361 15.0256 8.19233 17.7537 5.59025C18.111 5.24858 17.662 4.68713 17.2495 4.96108C13.5724 7.39963 8.47453 10.784 7.82557 11.2246C6.84536 11.8902 5.9037 12.1955 4.21411 11.71C2.93703 11.3434 1.69016 10.9059 1.20474 10.7392C-0.665054 10.0975 -0.221303 9.26629 1.59432 8.46733Z" fill="#fff"/>
</svg>
