<svg width="26" height="21" viewBox="0 0 26 21" fill="none" xmlns="http://www.w3.org/2000/svg">
<path d="M26 2.48294C25.0447 2.90726 24.0173 3.19015 22.9332 3.32418C24.0352 2.66824 24.8833 1.62194 25.2812 0.385412C24.2501 0.991324 23.1076 1.43665 21.8923 1.67135C20.9216 0.639883 19.537 0 18.0033 0C15.0572 0 12.6686 2.37362 12.6686 5.30065C12.6686 5.71509 12.7173 6.11841 12.8078 6.51C8.37553 6.28703 4.444 4.17406 1.81394 0.967235C1.35199 1.75103 1.09206 2.66824 1.09206 3.63671C1.09206 5.47668 2.03137 7.09676 3.46404 8.05103C2.58941 8.02447 1.76651 7.7805 1.04586 7.38891C1.04586 7.40497 1.04586 7.42844 1.04586 7.45129C1.04586 10.0226 2.88506 12.1639 5.32294 12.6513C4.87762 12.7736 4.40642 12.8415 3.92107 12.8415C3.57676 12.8415 3.24107 12.8026 2.91585 12.7439C3.59462 14.8451 5.56377 16.3812 7.89695 16.4269C6.07131 17.8463 3.77201 18.6962 1.27191 18.6962C0.84014 18.6962 0.417606 18.6715 0 18.6208C2.36336 20.1211 5.16772 21 8.17843 21C17.9885 21 23.3558 12.9218 23.3558 5.91335C23.3558 5.68359 23.3484 5.45506 23.3379 5.229C24.385 4.48721 25.2874 3.55209 26 2.48294Z" fill="#fff"/>
</svg>
